<svg xmlns="http://www.w3.org/2000/svg" xmlns:xlink="http://www.w3.org/1999/xlink" width="20" height="80" viewBox="0 0 20 80"><svg viewBox="0 0 482.207 482.207" width="20" height="20" id="favorite" y="0"><path fill="#ddd" d="M482.207 186.973l-159.699-33.704-81.404-141.466-81.405 141.466L0 186.973l109.388 121.135-17.294 162.296 149.01-66.601 149.009 66.601-17.295-162.296z"></path></svg><svg width="20" height="20" viewBox="0 0 448.564 448.564" id="mobile-phone-vibrating" y="20"><g fill="#ddd"><path d="M83.458 127.442l112.005 274.47c4.844 11.882 18.471 17.61 30.351 12.761l133.49-54.481c11.877-4.85 17.601-18.469 12.74-30.352L260.04 55.377c-4.844-11.89-18.474-17.618-30.351-12.758L96.209 97.098c-11.89 4.85-17.595 18.461-12.751 30.344zm149.664-76.394c7.236-2.947 15.539.536 18.488 7.765l112.006 274.47c2.96 7.236-.523 15.533-7.76 18.479l-133.484 54.481c-7.236 2.955-15.523-.533-18.486-7.77L91.877 123.997c-2.945-7.229.523-15.523 7.759-18.469l133.486-54.48z"></path><path d="M207.881 378.401l138.834-56.66a2.265 2.265 0 0 0 1.25-2.971l-98.33-240.955a2.277 2.277 0 0 0-2.966-1.242l-138.832 56.668a2.252 2.252 0 0 0-1.249 2.96l98.333 240.95a2.258 2.258 0 0 0 2.96 1.25zM249.269 88.96l90.638 222.116c1.65 4.037-.29 8.652-4.327 10.303l-119.995 48.973c-4.037 1.65-8.65-.295-10.3-4.332l-90.637-222.115c-1.65-4.037.292-8.65 4.329-10.301l119.995-48.972a7.89 7.89 0 0 1 10.297 4.328zM160.174 96.908l23.684-9.679c1.17-.479 1.732-1.808 1.25-2.96a2.267 2.267 0 0 0-2.963-1.25l-23.699 9.679a2.287 2.287 0 0 0-1.249 2.96 2.284 2.284 0 0 0 2.977 1.25zM304.137 355.286c-2.041-4.986-7.744-7.389-12.73-5.357l-24.268 9.907c-4.981 2.041-7.394 7.744-5.357 12.72l.604 1.453c2.021 4.986 7.733 7.388 12.726 5.357l24.252-9.908c4.986-2.036 7.394-7.738 5.357-12.725l-.584-1.447zm-6.484 9.963l-24.273 9.907c-2.65 1.081-5.707-.198-6.784-2.859l-.599-1.457a5.21 5.21 0 0 1 2.863-6.784l24.273-9.907c2.65-1.081 5.713.198 6.784 2.854l.584 1.452a5.216 5.216 0 0 1-2.848 6.794zM126.908 49.784a5.85 5.85 0 0 0 1.699-4.187c0-.703-.127-1.398-.373-2.046-.861-2.323-3.103-3.854-5.568-3.847-47.353.244-85.702 38.963-85.456 86.316.016 3.184 2.78 5.908 5.957 5.9a5.928 5.928 0 0 0 4.179-1.762 5.906 5.906 0 0 0 1.714-4.194c-.213-40.827 32.834-74.212 73.661-74.418a5.805 5.805 0 0 0 4.187-1.762z"></path><path d="M130.643 14.266c3.255-.015 5.896-2.679 5.896-5.964a6.244 6.244 0 0 0-.389-2.039 5.929 5.929 0 0 0-5.586-3.839C58.216 2.78-.354 61.958.001 134.337c.016 3.199 2.788 5.893 5.972 5.886a5.84 5.84 0 0 0 4.164-1.762 5.834 5.834 0 0 0 1.714-4.187C11.519 68.436 64.804 14.606 130.643 14.266zM359.909 397.757a5.785 5.785 0 0 0-3.058 3.362 6 6 0 0 0 .229 4.52 5.921 5.921 0 0 0 1.219 1.69c1.763 1.741 4.438 2.173 6.683 1.122 42.772-20.316 61.062-71.63 40.751-114.412-1.36-2.879-5.032-4.174-7.901-2.823a5.968 5.968 0 0 0-3.041 3.372 5.913 5.913 0 0 0 .229 4.529c17.522 36.887 1.77 81.127-35.111 98.64z"></path><path d="M427.999 267.918a5.869 5.869 0 0 0-3.021 3.372c-.538 1.488-.467 3.098.229 4.515 28.219 59.479 2.804 130.829-56.659 159.067-2.95 1.396-4.194 4.926-2.813 7.906.31.625.711 1.184 1.198 1.681a5.97 5.97 0 0 0 6.703 1.107c65.363-31.006 93.287-109.445 62.256-174.845-1.348-2.893-5.014-4.158-7.893-2.803z"></path></g></svg><svg viewBox="0 0 60 60" width="20" height="20" id="placeholder" y="40"><g fill="#ddd"><path d="M42.117 43.007a1 1 0 0 0-.234 1.986C52.399 46.231 58 49.567 58 51.5c0 2.714-10.652 6.5-28 6.5S2 54.214 2 51.5c0-1.933 5.601-5.269 16.117-6.507a1 1 0 0 0-.234-1.986C7.354 44.247 0 47.739 0 51.5 0 55.724 10.305 60 30 60s30-4.276 30-8.5c0-3.761-7.354-7.253-17.883-8.493z"></path><path d="M29.823 54.757L45.164 32.6c5.754-7.671 4.922-20.28-1.781-26.982C39.761 1.995 34.945 0 29.823 0s-9.938 1.995-13.56 5.617c-6.703 6.702-7.535 19.311-1.804 26.952l15.364 22.188zM30 12c3.86 0 7 3.141 7 7s-3.14 7-7 7-7-3.141-7-7 3.14-7 7-7z"></path></g></svg><svg width="20" height="20" viewBox="0 0 492.664 492.664" id="world-wide-web" y="60"><g fill="#ddd"><path d="M246.332 0C110.286 0 0 110.286 0 246.332c0 136.045 110.286 246.332 246.332 246.332s246.332-110.287 246.332-246.332C492.664 110.286 382.378 0 246.332 0zm0 448.686c-111.581 0-202.354-90.773-202.354-202.354 0-111.578 90.773-202.354 202.354-202.354s202.354 90.773 202.354 202.354-90.773 202.354-202.354 202.354z"></path><path d="M141.828 186.987H91.147a164.82 164.82 0 0 0-9.994 41.258h56.5c.646-14.113 2.056-27.925 4.175-41.258zM110.47 150.812h39.201c4.32-15.437 9.689-29.842 16.085-42.789 1.669-3.38 3.413-6.587 5.188-9.716-24.173 12.365-44.929 30.463-60.474 52.505zM350.836 305.678h50.681a164.643 164.643 0 0 0 9.992-41.258h-56.497c-.646 14.112-2.057 27.924-4.176 41.258zM355.012 228.245h56.5a164.687 164.687 0 0 0-9.992-41.258h-50.682c2.117 13.333 3.528 27.145 4.174 41.258zM326.909 384.639c-1.67 3.381-3.414 6.588-5.188 9.717 24.176-12.361 44.93-30.459 60.475-52.502h-39.2c-4.322 15.431-9.692 29.839-16.087 42.785zM342.99 150.812h39.201c-15.545-22.043-36.3-40.141-60.475-52.502 1.775 3.129 3.521 6.335 5.188 9.715 6.4 12.946 11.77 27.354 16.086 42.787zM149.673 341.854H110.47c15.545 22.043 36.299 40.141 60.475 52.502-1.775-3.129-3.52-6.336-5.188-9.717-6.397-12.946-11.766-27.354-16.084-42.785zM137.653 264.42h-56.5a164.729 164.729 0 0 0 9.991 41.258h50.682c-2.117-13.334-3.527-27.146-4.173-41.258zM264.42 86.158v64.654h40.894c-10.328-31.763-25.264-54.473-40.894-64.654zM187.352 150.812h40.894V86.158c-15.632 10.181-30.569 32.891-40.894 64.654zM178.435 305.678h49.811V264.42H173.85c.719 14.57 2.3 28.368 4.585 41.258zM173.849 228.245h54.396v-41.258h-49.811c-2.284 12.889-3.865 26.687-4.585 41.258zM264.42 186.987v41.258h54.396c-.722-14.571-2.306-28.369-4.587-41.258H264.42zM264.42 305.678h49.811c2.281-12.887 3.865-26.686 4.587-41.258h-54.396l-.002 41.258zM228.245 406.507v-64.653h-40.893c10.325 31.762 25.262 54.472 40.893 64.653zM264.42 406.507c15.63-10.179 30.566-32.889 40.894-64.653H264.42v64.653z"></path></g></svg></svg>